<?xml version="1.0" standalone="no"?>
<!DOCTYPE svg PUBLIC "-//W3C//DTD SVG 20010904//EN"
 "http://www.w3.org/TR/2001/REC-SVG-20010904/DTD/svg10.dtd">
<svg version="1.0" xmlns="http://www.w3.org/2000/svg"
 width="33.000000pt" height="32.000000pt" viewBox="0 0 33.000000 32.000000"
 preserveAspectRatio="xMidYMid meet">
<metadata>
Created by potrace 1.16, written by Peter Selinger 2001-2019
</metadata>
<g transform="translate(0.000000,32.000000) scale(0.100000,-0.100000)"
fill="#000000" stroke="none">
<path d="M0 160 l0 -160 165 0 165 0 0 160 0 160 -165 0 -165 0 0 -160z m165
120 c6 0 28 3 51 6 36 5 44 3 63 -21 14 -19 21 -42 21 -71 l0 -44 -60 0 -60 0
0 -34 c0 -44 20 -60 69 -53 48 6 66 -18 25 -33 -36 -14 -66 -12 -92 6 -20 14
-24 14 -44 0 -34 -24 -73 -20 -97 10 -46 59 -5 134 73 134 27 0 30 9 20 47 -9
31 -36 38 -56 14 -20 -25 -48 -27 -48 -4 0 9 8 25 17 36 14 15 26 18 63 13 25
-3 50 -6 55 -6z"/>
<path d="M196 244 c-9 -8 -16 -26 -16 -40 0 -21 4 -24 40 -24 36 0 40 3 40 24
0 24 -23 56 -40 56 -5 0 -16 -7 -24 -16z"/>
<path d="M93 138 c-39 -19 -34 -78 6 -78 26 0 43 24 39 56 -3 32 -14 37 -45
22z"/>
</g>
</svg>
